<?xml version="1.0" encoding="utf-8"?>
<!-- Generator: Adobe Illustrator 19.1.0, SVG Export Plug-In . SVG Version: 6.00 Build 0)  -->
<svg version="1.1" xmlns="http://www.w3.org/2000/svg" xmlns:xlink="http://www.w3.org/1999/xlink" 
	 viewBox="0 0 800 600" xml:space="preserve">
<style type="text/css">
	.st0{fill:#E89BBD;stroke:#808080;stroke-width:0.5;stroke-linecap:round;stroke-linejoin:round;}
	.st1{fill:#BACE6B;stroke:#808080;stroke-width:0.5;stroke-linecap:round;stroke-linejoin:round;}
	.st2{fill:#F8A758;stroke:#808080;stroke-width:0.5;stroke-linecap:round;stroke-linejoin:round;}
	.st3{fill:#FFEB64;stroke:#808080;stroke-width:0.5;stroke-linecap:round;stroke-linejoin:round;}
	.st4{fill:#AC8FC7;stroke:#808080;stroke-width:0.5;stroke-linecap:round;stroke-linejoin:round;}
	.st5{fill:#8EC79A;stroke:#808080;stroke-width:0.5;stroke-linecap:round;stroke-linejoin:round;}
	.st6{fill:#89B8E4;stroke:#808080;stroke-width:0.5;stroke-linecap:round;stroke-linejoin:round;}
	.st7{fill:#FBD165;stroke:#808080;stroke-width:0.5;stroke-linecap:round;stroke-linejoin:round;}
	.st8{font-family:'Roboto-Regular';}
	.st9{font-size:14px;}
</style>
<g id="Sri_Lanka">
	<path class="st0" d="M420.657,146.682l0.037,2.177l1.638,1.151l-0.011,0.011l-1.469,1.359l-1.301,1.54l0.011,0.006l2.165,1.698
		l2.333-0.18l1.907-1.777l1.413-2.471l0.92-2.284l0.022,0.011l4.98,5.996l4.419,7.563l1.806,1.872l2.524,0.733l2.019,1.624
		l2.961,7.155l0.752,0.784l0.796,0.84l0.011,0.006l3.387,1.533l1.694,3.602l1.94,7.243l0.348-1.33l0.449-0.519l0.751,0.169
		l0.011,0.006l1.335,0.727l-0.404,1.33l3.836,4.171l1.279,2.068l-0.011,2.496l-1.009,1.003l-1.436,0.659l-1.312,1.516l0.022-0.011
		l0.998-0.254l1.032-0.265l0.258-0.141l0.516-0.276l0.011,0.011l2.984,6.469l0.437,3.369l-3.421,0.552h-0.011l0.707-2.231
		l-0.92-1.786l-1.526-0.259l-1.088,2.383l0.37,1.848l0.976,1.313l0.538,1.403l-1.021,2.135l-0.808-0.614L458,211.651l-2.389-1.47
		l-2.412-0.552l-2.299,0.969l-1.783,2.389l0.628,1.251l2.131-0.327l2.871-2.361l1.974,2.09l1.783,2.507l2.154,2.09l3.028,0.868
		l6.337-0.124l2.142-1.352l-1.413-3.245l3.623-1.651l1.436-0.439l1.525,0.107l0.011,0.011l1.671,0.958l1.525,1.622l1.144,1.893
		l0.976,5.543l2.154,7.13l0.067,1.858l0.067,1.864l-1.75-1.222l-1.828-3.672l-1.604-0.777l-0.056,1.002l0.662,4.494l0.056,0.343
		l0.751,1.723l0.92,0.434l0.841,0.394h0.022h1.862l1.481,0.665l0.875,5.293l1.054,3.671l0.18,0.608l0.292,2.246l-12.366-1.307
		l-2.293,0.812l-2.137,0.014l-1.724-0.004l-1.254,1.344l-0.912,1.652l-1.04,0.776l-0.954,0.826l-0.869,3.617l-0.698,1.323
		l-1.952,4.543l-3.462,0.783l-0.669-0.225l-0.541-0.386l1.595-1.001l0.741-1.723l-0.484-2.627l0.057-1.784l-0.214-1.759
		l-0.983-1.383l-1.738,0.132l-2.436-1.244l-2.222-1.705l-2.293-1.294l-2.464-0.003l-10.441-2.542l-5.812,0.568l-1.724-1.723
		l-0.57-2.882l-2.108-1.652l-2.236-0.858l-1.61-2.374l-2.066,0.601l2.991-10.632l0.313-1.742l0.57-1.67l1.695-1.667l1.966-1.266
		l1.14-2.042l-0.926-2.128l-1.595-1.227l-1.239-1.563l-1.937-4.597l-3.647-5.406l-0.57-3.303l-1.467-1.424l-1.168-1.324
		l-0.114-2.827l2.137-4.975l-1.054-2.888l-2.55-5.569l-0.085-5.953l2.336-3.433l1.61-3.595l-1.31-0.992l-1.111-1.49l-2.122-2.32
		l-5.997-4.175l-3.518-1.984l-4.046-0.09l-3.889,1.587l0.612-2.424l1.14-1.973l5.413-2.514l6.382-0.824l2.635-0.759l2.393-1.411
		l2.65-0.752l2.179-0.956L420.657,146.682z"/>
	<path class="st1" d="M379.731,82.06l16.321,13.195l0.146,0.249l0.965,1.615l1.548,1.92l2.961,2.778l1.884,2.433l-1.671,0.875
		l-0.011,0.006l-0.942-0.423l-0.112-0.051l-0.022-0.006l-1.447-1.863l-0.796-0.407l-0.011-0.011l-2.49-0.407l-1.088,0.328
		l0.538,1.107l0.18,0.35l7.156,6.65l2.793,1.53l0.011,0.006l-1.111-1.722l-0.673-1.569l0.348-1.169l1.907-0.446l0.897,0.604
		l1.458,4.302l1.335,2.647l5.238,10.43l-1.054-0.384l-2.916-1.078l-1.828-0.034l-0.774,1.975l1.077,0.502l2.243,0.367l1.996,1.253
		l0.022,0.169l0.292,3.002h0.022h0.92l0.46-0.796l0.415-0.344l0.471-0.226l0.628-0.44v0.011l0.707,2.754l0.079,0.344l1.952,4.441
		l2.613,3.983l2.658,1.726l0.202,0.164l0.314,0.265l-0.011,0.97l-0.639,0.976l-1.279,0.457l-0.37-0.406l-1.514-2.426l-1.649-0.869
		l-3.78-0.97l-2.198-1.004l1.009,1.399l0.561,0.779l4.98,4.648l0.008,0.463l-0.01,0.005l-2.179,0.956l-2.65,0.752l-2.393,1.411
		l-2.635,0.759l-6.382,0.824l-5.413,2.514l2.536-9.388l-1.667-2.225l-4.388-2.68l-4.345-0.659l-2.023,1.376l-2.151,0.516
		l0.228-1.884l1.325-1.952l-1.595-2.798l-3.704-0.405l-0.499-4.45l-4.273-1.634l-4.487,0.122l-0.313,0.681l-0.256,0.706l-1.31,0.752
		l-1.367,0.663l-2.365,2.103l-3.39,1.501l-2.122-3.153l-3.447-2.186l-4.743,0.136l-2.664-0.161l-2.479,0.236l-0.356,2.021
		l1.068,1.447l2.023,0.326l0.142,1.129l-0.014,1.24l0.499,2.368l0.171,2.343l-2.464,3.715l-3.846,3.109l-6.396,4.004l-22.749,1.218
		l1.752-4.979l-0.627-0.942l-0.655-1.239l0.47-1.605l0.727-1.576l0.456-1.523l0.612-1.383l3.034-1.035l0.199-2.834l-0.313-3.26
		l0.513-2.003l0.114-2.121l-0.157-1.021l-0.271-0.982l-2.55-4.039l-0.84-4.527l-0.157-4.724l3.632,0.445l-0.356-3.843l3.59-4.66
		l10.584-1.241l3.775-0.054l3.718,0.674l3.647-0.337l2.365-5.998l1.852-0.072l6.282,0.323l3.49-0.215l2.322-1.255l1.909-6.29
		l0.67-0.197l1.04,1.305l2.707,2.284l3.148,1.718l-0.37-3.145l0.399-3.174l2.949-2.295l0.299-2.306l0.656-0.667l0.711-0.481
		l0.826-0.699L379.731,82.06z"/>
	<path class="st2" d="M354.338,65.102l0.314,0.137V64.21l-5.002-2.526l-12.114-9.896l-9.927-11.436l-5.047-2.702l-7.908-1.871
		l-2.086-1.493l-0.269-2.109l2.894-1.255l0.942-0.158l2.871-0.481L324.715,30l2.748,0.515l1.907,1.34l1.267,4.546l1.267,1.9
		l18.047,21.163l2.658,1.95l5.384,3.068l21.737,17.579l-0.01,0.008l-0.826,0.699l-0.711,0.481l-9.377-6.417l-3.23-1.491
		l-2.872-0.621l-0.426-0.198l-0.415-0.198l-2.49-1.887l-0.942-0.554l-0.942-0.147l-1.133,0.056l-0.268-1.386L354.338,65.102z
		 M328.741,59.728l-7.088-3.097l-2.557-1.475l-1.716-0.023l0.325,3.38l0.953,0.995l1.481,1.125l0.875,1.373l-0.875,1.774
		l-1.043,0.316l-1.009-0.542l-0.92-0.769l-2.647-1.373l-5.148-4.481l-2.961-1.266l0.011,0.011l1.503,1.65l2.714,2.34l1.503,1.695
		l-3.342-0.644l-3.298-1.373l-6.629-3.679l-5.283-4.149l-3.141-1.108l-0.314-0.192l-1.189-0.769l-1.11-0.447l-0.168,0.983
		l-1.514-1.034l-0.572-1.34l-0.269-1.6l-0.538-1.809l-0.909-1.543l-0.538-0.701l-1.413-1.843l-0.909-1.6l2.984-1.493l5.429-5.015
		l2.445-1.086h0.011l10.768,0.95l5.62-0.628l2.053,0.238l0.808,1.855l-0.135,2.912l0.404,1.012l1.178,0.384l1.144,0.164l3.298,0.848
		l0.695,0.373l0.617,1.221l1.481-0.051l1.167-0.356l0.449-0.136l0.673-0.096l0.471-0.068l0.011,0.006l1.066,0.622l0.46,0.266
		l3.858,4.195l5.559,6.038l-0.005,0.011l-1.866,3.969L328.741,59.728z M256.351,75.753l-1.099,1.051l-1.122,1.051l-3.477,0.203
		l-3.23-1.068l-1.413-1.751v-5.689l0.404-1.458l0.909,0.186l0.942,1.17l0.572,1.475l2.378,0.746l2.838,0.215l0.707,0.514
		L256.351,75.753z M279.098,59.463l-2.131-1.543l-2.131-3.182l-3.342-6.653l1.525-2.38l0.348-3.047l0.864-2.471l3.006-0.645
		l1.593,0.48l0.022,0.006l0.135,1.17l-0.538,1.634l-0.37,1.888l0.056,1.905l0.202,1.521l0.011,0.09l0.123,0.305l0.471,1.102
		l0.628,0.718l0.493,0.565l0.583,0.147l2.669-0.147l0.449,0.413l0.202,2.086l0.336,0.865l1.57,0.989l2.131,0.91l1.783,1.012
		l0.146,0.316l0.471,0.995l-0.953,0.983l-1.817,0.011l-1.952-0.605l-1.38-0.865l-0.976-0.237l-2.479,1.458l-1.739,0.203H279.098z"/>
	<path class="st3" d="M333.516,50.67l6.599,7.166l4.285,2.69l9.938,4.576l1.752,5.305l0.268,1.386l-1.705,0.09l-1.077,0.412
		l-0.157,0.237l-0.303,0.503l-0.538,0.277l-1.828-1.35l-0.729-0.124l-4.475,0.119l-1.279-0.373l-9.803-8.475l-4.206-2.718h-0.011
		l-1.504-0.662l2.904-5.078l1.866-3.969L333.516,50.67z M308.586,116.099l0.853-3.381v-8.061l0.303-1.18l-0.269-0.796l-1.615-0.311
		l-3.802-1.976l-1.481-1.378l-0.931-2.609l-0.157-0.474l-0.662-3.253l-0.067-1.847l1.649-1.734l3.051-1.519l3.387-1.079l2.782-0.412
		l1.245-0.638l3.028-4.01l0.348-0.26l0.527-0.407l1.01-0.599l1.245-0.463l1.582-0.249l-1.312-2.418l-0.785-1.062l-0.796-1.062
		l-2.03-2l-2.681-2l-10.196-5.978l-2.053-2.549l4.442,0.141l4.206,1.684l8.3,4.814l7.919,1.989l2.086,1.333l3.264,2.847l0.808,1.503
		l-1.682,0.859l0.37,0.949l0.493,0.949l-0.864,0.938l0.011,0.006l2.883,1.937l6.808-1.661l12.45-4.931l3.354,0.322l7.347,2.022
		l8.67,3.898l6.539,1.254h0.022l-0.656,0.667l-0.299,2.306l-2.949,2.295l-0.399,3.174l0.37,3.145l-3.148-1.718l-2.707-2.284
		l-1.04-1.305l-0.67,0.197l-1.909,6.29l-2.322,1.255l-3.49,0.215l-6.282-0.323l-1.852,0.072l-2.365,5.998l-3.647,0.337l-3.718-0.674
		l-3.775,0.054l-10.584,1.241l-3.59,4.66l0.356,3.843l-3.632-0.445l-2.635,1.968l-2.906,1.473l-4.743,0.416L308.586,116.099z"/>
	<path class="st4" d="M281.433,204.445l0.514-0.552l0.224-0.682l1.368-4.237l0.191-0.18l0.101-0.096l0.303-1.24l1.279-2.773
		l1.223-13.482l-3.32-8.603l0.269-1.494l0.247-9.811v-0.13l-0.336-3.282l-0.404-1.613l-0.718-1.218l-0.561-1.387l1.279-0.688
		l1.851-0.344l1.223-0.372l7.997-7.192l4.172-2.048l1.739-1.518l0.92-3.374l1.649-3.47l0.942-4.824l4.431-11.434l0.157-0.632
		l0.415-1.671l1.008,0.007l4.743-0.416l2.906-1.473l2.635-1.968l0.157,4.724l0.84,4.527l2.55,4.039l0.271,0.982l0.157,1.021
		l-0.114,2.121l-0.513,2.003l0.313,3.26l-0.199,2.834l-3.034,1.035l-0.612,1.383l-0.456,1.523l-0.727,1.576l-0.47,1.605l0.655,1.239
		l0.627,0.942l-1.752,4.979l22.749-1.218l3.732,1.748l2.137,3.413l2.094,5.311l-0.698,4.838l-7.407,2.721l-7.763,0.97l-4.986-0.555
		l-3.86,2.127l-2.051,4.647l-3.561,0.354l-0.513,2.051l-0.029,1.808l3.262,2.477l5.214,6.707l-13.404,3.504l-6.766-0.021
		l-6.14-2.491l1.097,8.116l-0.285,12.834l-1.325-0.154l-1.14-0.562l-3.675-2.061l-3.533-1.492l-4.074-0.376l-3.632-1.381
		L281.433,204.445z M254.052,134.66l-1.537-0.604l-0.684-1.332l0.437-1.332l1.783-0.609h6.158l2.726,0.7l2.815,0.722l5.877,2.234
		l5.608,3.25l4.711,4.547l-0.011-0.006l-2.254-0.468l-3.971-1.963l-2.333-0.406l3.578,4.062l2.815,3.204l1.234,2.2l-3.298-0.417
		l-2.154-1.658l-1.48-1.805l-1.111-0.857l-1.424-0.722l-5.675-5.044l-2.815-1.253l-2.815-1.253l-2.064-0.559l-1.099-0.299
		L254.052,134.66z"/>
	<path class="st2" d="M269.732,383.613l-5.955-43.329l-0.841-1.787l0.572-0.607l0.426-0.062l0.987,0.669l0.224-2.389l0.684-2.771
		l0.168-1.327l0.168-1.332l-0.774-2.08l-1.043-1.906l-0.202-1.265l-0.202-1.265l0.011-5.094l-3.174-15.492l-0.37-1.789l-1.638-3.403
		l-1.391-7.149l-2.254-5.643L251.663,270v-4.429l0.561,0.253l0.034,0.039l0.045,0.039v0.141l0.303,0.473l0.493-2.572l-0.729-8.173
		l-0.707-2.477l2.266-1.486l2.142-2.753l1.548-3.136l0.617-2.635l0.628-1.723l4.072-6.391l-0.045,0.107l-2.053,4.826l-2.602,4.6
		l0.572,1.12l0.146,0.276l1.021,1.013l1.335,0.529l1.626-0.011l-1.335,3.761l-1.391,2.758l-0.606,0.479l-0.639,0.068l-0.505,0.388
		l-0.224,1.469l0.123,3.27l-0.123,1.019l-2.333,7.412l0.09,1.373l0.179,2.746l2.412,2.853l0.684,0.81l-2.759,5.739l4.397,3.179
		l6.393,0.501l3.253-2.29l-0.617-2.464l-1.043-1.93l-0.404-0.737l-0.494-0.608l-1.223-1.531l-1.38-0.878l-0.404-1.497l4.644-8.813
		l-0.179-1.598l-0.595-1.182l-0.684-0.991l-0.426-1.036l-0.112-1.666l0.157-2.871l-0.045-1.182v-0.034l-0.079-0.225l-0.37-0.985
		l-0.224-0.203l-0.269-0.253l-0.269-0.563l0.269-1.548l0.651-1.312l1.806-2.353l0.37-1.531l0.292-2.894l1.29-5.794l1.312-13.516
		l0.841-1.538l0.909-0.76l0.695-0.918l0.292-2.022v-5.763l0.796-2.828l1.873-1.82l2.221-1.504l1.28-1.375l1.58,0.912l3.632,1.381
		l4.074,0.376l3.533,1.492l3.675,2.061l0.783,5.716l-2.507,5.297l-4.302,3.505l-0.185,0.973l-0.627,1.241l-2.322,1.066l-1.51,3.43
		l2.023,3.88l3.433,13.951l0.855,2.456l2.863-0.014l2.322-1.051l2.464,1.841l2.792-0.1l2.037,1.623l1.538,1.98l0.256,2.638
		l-0.071,2.781l1.453,5.468l0.513,2.702l1.296,2.487l1.88,0.65l1.652,1.033l-0.342,1.647l-0.541,1.815l0.114,3.723l-0.142,3.14
		l-1.04,1.561l-0.798,1.629l1.652,3.065l-1.738,1.336l-2.863-1.608l-0.798,1.329l-0.029,1.693l-1.054,1.086l-0.869,0.268l0.1-0.25
		l0.157-0.225l-2.037,0.936l-0.855,1.929l-0.199,1.396l-0.555,1.257l-2.92,1.511l-0.655,1.414l-0.399,1.489l-1.681,1.136
		l-1.781,0.943l-0.499,1.493l-0.257,1.639l-1.31,3.353l-0.442,3.656l0.741,1.532l0.527,1.46l-0.969,1.257l-1.496,0.625l-1.98,0.154
		l-1.781,0.56l-0.94,1.596l-0.698,1.803l1.695,0.421l0.755,1.264l-1.624,0.889l-2.009,0.514l-0.969,1.367l-0.527,1.564l-2.065,3.512
		l-1.482,3.79l-0.271,4.754l0.242,4.761l5.1,27.215l0.328,8.211l-2.407-0.927l-2.023,1.252l-1.624-0.196l-1.068-1.188l-2.664,0.339
		l-2.564,0.671L269.732,383.613z"/>
	<path class="st5" d="M272.682,426.531l1.368-3.272l0.359-1.572l-0.034-1.6v-0.028l-6.595-23.299l0.909-3.42l-0.045,2.106
		l0.516,1.325l0.74,1.022l0.651,1.207l1.324,4.621l0.651,1.112h0.852l0.202-1.319l0.393-0.556l0.348-0.09h0.011l0.078,0.073
		l-0.034-4.217v-0.028l-0.303-1.847l-0.695-1.522l-0.65-0.444l-1.817-0.393l-0.808-0.539l-0.09-0.191l-0.493-0.994l0.224-1.095
		l0.527-1.022l0.28-0.977l-0.819-5.96l3.281,0.164l2.564-0.671l2.664-0.339l1.068,1.188l1.624,0.196l2.023-1.252l2.407,0.927
		l2.934-1.145l5.256-4.098l3.305-0.139l3.803,2.672l3.989-1.181l3.376-2.375l3.832-0.681l1.254,1.37l0.385,1.177l0.798,1.138
		l3.433,3.891l2.407,1.755l0.228,1.833l-1.353,1.07l-0.37,4.743l-1.795,1.68l-2.179,1.123l-0.584,3.908l1.681,3.458l3.362-0.795
		l2.906,0.845l-1.04,2.342l-1.994,1.373l-1.752,4.018l-0.712,4.017l2.051,6.548l0.029,1.258l-0.413,1.133l-2.507,0.884l-3.732-0.392
		l-2.721,1.258l-2.194,2.16l-0.556,2.598l-0.157,2.701l-2.963,0.157l-2.436-0.296l-1.595-0.624l-1.567-0.848l-1.624-1.511
		l-1.866-1.144l-2.35,0.175l-2.379,0.47l-6.852-2.007l-1.254,0.506l-1.083,0.592l-2.436-0.577l-2.279-1.187L272.682,426.531z"/>
	<path class="st4" d="M279.72,461.412l-5.142-13.124l-1.873-10.414l-0.179-1.033v-9.922l0.157-0.387l2.966,1.148l2.279,1.187
		l2.436,0.577l1.083-0.592l1.254-0.506l6.852,2.007l2.379-0.47l2.35-0.175l1.866,1.144l1.624,1.511l1.567,0.848l1.595,0.624
		l2.436,0.296l2.963-0.157l0.157-2.701l0.556-2.598l2.194-2.16l2.721-1.258l3.732,0.392l2.507-0.884l2.991,0.2l2.379,1.205
		l0.427,2.509l-1.838,1.711l0.185,1.333l0.071,1.344l-1.766,2.149l-1.496,2.359l-0.584,1.921l-0.712,1.636l3.39,3.581l-3.034,2.704
		l-4.031-0.926l-4.473,1.885l0.883,3.994l-2.692-0.691l-1.781-4.136l-0.712-0.41l-0.883-0.164l-1.695,1.96l-2.151,1.094l-1.51-0.709
		l-1.538,0.178l-5.299,4.539l-1.524,0.68l-1.61,0.374l-3.974,1.482l-6.382-3.929l-0.157,2.287l0.841,2.558l0.441,1.756l0.029,1.717
		l-0.057,0.093L279.72,461.412z"/>
	<path class="st0" d="M290.987,498.76l-0.583-2.366l-0.292-0.23l-0.595-0.359l-0.617-0.538l-0.381-0.757l0.157-0.807l0.673-0.196
		l0.707,0.078h0.011l0.337-0.017l-1.054-7.228l-0.09-0.578l-2.871-7.335l-6.669-17.016l0.216-0.368l0.057-0.093l-0.029-1.717
		l-0.441-1.756l-0.841-2.558l0.157-2.287l6.382,3.929l3.974-1.482l1.61-0.374l1.524-0.68l5.299-4.539l1.538-0.178l1.51,0.709
		l2.151-1.094l1.695-1.96l0.883,0.164l0.712,0.41l1.781,4.136l2.692,0.691l-0.883-3.994l4.473-1.885l4.031,0.926l0.456,2.839
		l2.407,6.327l-0.199,2.201l0.883,2.593l1.339,2.757l4.202,4.057l0.812,4.017l1.524,1.421l1.923,0.741l3.077,2.796l1.994,3.793
		l-2.08,0.794l0.727,2.34l5.826,8.15l4.986,8.616l-4.914,1.118l-4.815,2.958l-2.55,1.118v2.951l1.04,2.997l-0.271,2.762
		l-2.151-1.712l-2.122-2.036l-4.074-3.115l-4.188,0.356l-3.761,2.1l-5.969-1.128l-2.293-1.531l-2.222-1.944l-2.735-1.189
		l-2.521-0.509l-5.057-2.335l-0.698-1.178l-1.011-0.965l-1.396,0.552l-0.897,0.616l-0.798-0.737l-0.741-1.036L290.987,498.76z"/>
	<path class="st6" d="M346.516,564.482l-0.882-0.128l-0.662-0.291l-0.46-0.65l-0.583-0.644l-1.077-0.297l-0.639,0.224l-0.505,0.448
		l-0.538,0.381l-0.718-0.022l-0.247-0.202l-0.224-0.196l-0.875-1.238l-0.426-0.258l-0.112-0.067v-0.011l-0.976-0.342l-5.889-2.101
		l-2.411-0.493l-1.716-0.359l-2.995-2.392l-0.673-0.325l-1.324-0.639l-0.022-0.011l-1.01,1.025l-2.568-2.062l-11.228-11.838
		l-0.92-0.717l-0.011-0.006l-0.101-0.129l-0.314-0.375l-0.168-0.583l0.045-1.166l-0.348-0.605l-0.471-0.611l-1.245-1.619
		l-6.36-13.36l-0.269-1.278v-0.011l0.034-1.143l0.034-1.143v-0.011l-0.236-0.695l-1.144-2.371l-1.166-6.429l-2.535-4.518
		l-1.593-6.464l0.957,0.21l0.741,1.036l0.798,0.737l0.897-0.616l1.396-0.552l1.011,0.965l0.698,1.178l5.057,2.335l2.521,0.509
		l2.735,1.189l2.222,1.944l2.293,1.531l5.969,1.128l3.761-2.1l4.188-0.356l4.074,3.115l2.122,2.036l2.151,1.712l0.271-2.762
		l-1.04-2.997v-2.951l2.55-1.118l4.815-2.958l4.914-1.118l1.681,1.73l1.88,1.581l2.322,0.94l2.051,0.05l4.288,2.1l2.222-0.071
		l1.182,1.702l-2.835,0.844l-1.866,1.872l1.624,2.46l2.122,2.125l-0.812,3.894l-4.259-0.979l-2.635-2.456l-2.906-2.178l-2.279-0.669
		l-2.208,0.587l1.353,2.556l2.735,1.733l2.92,4.146l1.026,3.936l-2.407,2.936l-4.843-0.84l1.439,1.694l0.655,2.242l-0.997,2.843
		l-1.239,2.672l0.883,2.69l2.122,1.996l2.464,1.661l2.165,1.957l-1.866,2.231l-2.194,2.213l-1.909,0.754l-0.812,1.299l0.427,1.43
		l1.083,0.562l2.422,1.035l-0.84,1.668l-2.479,0.907l-1.539,2.679l0.029,1.505l0.242,1.455L346.516,564.482z"/>
	<path class="st3" d="M394.026,562.855l-2.113,2.44l-5.642-0.331l-0.011-0.006l-2.355,0.336l-1.839,0.695l-1.896,1.075l-3.354,2.498
		l-0.965,0.224L374.886,570l-2.288-0.879l-2.423-1.243l-1.391-0.42l-0.965-0.286l-7.975,0.941l-2.277-0.442l-1.155-1.137
		l-0.74-1.495l-0.583-0.874l-0.438-0.655l-2.333,1.35l-2.086,0.157l-3.717-0.533l-0.014-0.136l-0.242-1.455l-0.029-1.505
		l1.539-2.679l2.479-0.907l0.84-1.668l-2.422-1.035l-1.083-0.562l-0.427-1.43l0.812-1.299l1.909-0.754l2.194-2.213l1.866-2.231
		l-2.165-1.957l-2.464-1.661l-2.122-1.996l-0.883-2.69l1.239-2.672l0.997-2.843l-0.655-2.242l-1.439-1.694l4.843,0.84l2.407-2.936
		l-1.026-3.936l-2.92-4.146l-2.735-1.733l-1.353-2.556l2.208-0.587l2.279,0.669l2.906,2.178l2.635,2.456l4.259,0.979l0.812-3.894
		l-2.122-2.125l-1.624-2.46l1.866-1.872l2.835-0.844l2.692-0.384l2.706-0.623l0.954-2.232l2.35-0.018l6.054-0.794l1.994,3.652
		l-0.912,2.449l2.479,0.438l3.305-0.552l1.539,1.894l-0.114,1.292l1.766,1.306l-0.727,0.737v1.313l-1.296,0.505l0.228,1.032
		l-0.926,2.42l0.926,2.182l-5.285,3.979l-1.681,5.929l2.393,1.676l2.607,0.979l1.225-0.217l0.741,0.747l-0.669,1.43l-0.812,1.249
		l0.47,2.341l2.265,1.213l1.624-0.263l1.51,0.327l-0.484,1.199l-1.268,1.146l1.524,5.297l-4.473,1.896l0.328,2.195l1.909,1.252
		l1.339,0.128l1.182,0.633l-0.071,1.142l-0.983,0.544l1.624,2.518l3.504,1.579L394.026,562.855z"/>
	<path class="st1" d="M529.421,489.218l-4.212,6.632l-4.33,4.311l-7.997,5.645l-2.613,0.779l-3.5,1.867l-25.585,20.01l-5.115,2.757
		l-16.612,5.873h-0.011l-0.224-1.989l-0.011-0.118l-0.987-0.773l-0.022,0.006l-0.224,0.056l-0.83,0.224l-0.527,1.104l-0.269,2.32
		l-0.751,0.874l-1.211,0.325l-1.604,0.706l-2.995,1.799l-2.995,1.311l-14.346,3.065l-6.954,2.376l-7.627,1.378l-3.477,1.333
		l-2.086,2.924l-3.735-0.728l-2.299,0.88l-1.301,0.504l-5.305,3.905l-5.305,3.899l-0.332,0.383l-0.772-0.429l-3.504-1.579
		l-1.624-2.518l0.983-0.544l0.071-1.142l-1.182-0.633l-1.339-0.128l-1.909-1.252l-0.328-2.195l4.473-1.896l-1.524-5.297l1.268-1.146
		l0.484-1.199l-1.51-0.327l-1.624,0.263l-2.265-1.213l-0.47-2.341l0.812-1.249l0.669-1.43l-0.741-0.747l-1.225,0.217l-2.607-0.979
		l-2.393-1.676l1.681-5.929l5.285-3.979l-0.926-2.182l0.926-2.42l-0.228-1.032l1.296-0.505l7.877,1.498l10.114,3.659l2.65,0.406
		l2.621-0.623l2.635-0.253l2.094,1.637l1.61,1.854l5.057,1.018l2.892,0.95l0.698-2.42l-1.282-3.505l-2.536-2.812l3.39-2.21
		l3.476-1.869l3.889-1.26l2.991-2.253l-1.325-3.086l0.669-3.125l1.738,0.014l1.866-0.142l1.14-1.598l-0.029-1.826l1.695,1.207
		l1.31-1.484l3.462-0.032l3.419,0.438l2.35,0.84l1.054,2.513l1.367,0.189l1.482-0.064l1.253-0.89l1.738-0.189l2.578,3.357
		l2.108,3.556l3.447,1.427l3.775-2.054l1.353-1.356l2.108-0.876l4.017-1.05l8.191-3.165l1.51-1.079l0.342,0.395l1.211,0.174
		l3.675-1.339l3.846,0.876l1.795-2.926v-1.2l-0.085-1.129l0.627-0.851l0.598-0.972l-0.712-1.851l-0.057-2.328l2.721-2.158
		l3.276-1.471l2.507-2.404l2.92-2.208l3.704-0.687l2.464-2.856l4.117,5.046l1.581,0.103l1.766,0.242l2.293,2.603l3.348,1.043
		L529.421,489.218z"/>
	<path class="st6" d="M537.413,358.093l0.135,0.534l1.11,0.23l1.11-1.416h0.852l0.011,0.006l1.054,5.568l-0.034,2.051h0.022h0.942
		v-0.05l0.112-1.933l0.336-1.91l0.583-1.629l0.852-1.157v-0.938l-0.078-0.219l-0.303-0.865l0.247-0.433l0.763,0.32l1.234,1.191
		l0.426,1.09l0.314,2.927l2.12,3.354l3.443,11.747l-0.65,32.453l0.336,2.184l1.413,4.878l0.224,2.874l-0.785,5.484l-6.349,21.892
		l-0.359,2.256l-0.135,2.985l-0.471,2.491l-1.985,3.843l-0.437,1.717l-0.785,2.356l-2.67,4.157l-1.256,1.952l0.942,3.354
		l-1.514,3.982l-8.765,13.802l-1.226-0.406l-3.348-1.043l-2.293-2.603l-1.766-0.242l-1.581-0.103l-4.117-5.046l3.59-50.587
		l-0.684-2.726l-1.652-2.359l-0.014-2.666l-0.954-2.652l0.641-2.723l0.271-2.591l-4.074-2.442l-4.915-1.262l-0.712-0.628
		l-0.855-0.506h-1.026l-1.111-0.485l-1.068-1.893l-0.556-2.139l-1.781-3.223l1.61-4.282l2.878-3.391l2.236-1.755l-2.991-4.122
		l-0.399-2.967l-1.923-3.345l-3.048-2.636l-0.556-2.661l0.199-3.296l-1.638-7.27l0.271-1.855l-0.912-0.161l-0.869-0.524l2.037-3.147
		l-2.707-0.731l-3.447,1.837l-1.667,0.578l-1.524,0.678l-0.513,1.292l-0.94,1.477l-1.909,0.492l-1.41,0.107l0.029,1.805l0.755,1.627
		l0.157,1.623l-0.627,1.359l-0.954,1.149l-0.641,0.97l-2.792,1.541l-3.419-0.153l0.014,5.3l0.727,5.15l-2.564,1.865l-2.792,0.966
		l-1.211-2.243l-1.083-2.671l-0.484-2.475l-1.239-2.49l-0.954-1.602l-0.57-1.227l-1.695-0.321l-1.197,0.289l-2.065-2.03
		l-1.524-3.232l-0.897-6.075l-0.556-1.72l-0.413-1.702l0.385-1.242l0.769-1.424l1.453-6.712l-0.527-6.905l-6.125-1.324l-6.766,3.776
		l-2.934,2.698l-1.667,0.639l-1.382,0.318l-2.507,0.878l-3.39-5.635l-1.097-3.312l-0.185-2.252l-0.897-1.967l-2.08-1.274
		l-0.385-0.364l1.325-6.539l-0.299-2.66l-0.997-3.113l0.1-2.31l2.592-0.007l5.142-0.493l2.521-0.443l5.014,1.921l4.074,4.073
		l6.667,2.06l3.248,1.849l2.692,0.321l0.328-1.424l0.641-1.617l0.883-0.921l0.755-1.482l-0.427-3.263l0.627-3.11l3.732,0.736
		l4.43-0.221l3.675,1.193l4.715,6.79l3.048,2.888l4.202,1.192l4.373,0.839l-0.199,4.148l-1.353,4.001l0.271,2.309l1.268,2.07
		l4.33,2.591l2.35,2.259l9.046,1.552l9.174-0.992l3.234-1.795l0.057,3.461l1.083,3.386l0.413,7.821l1.011,2.226l4.815-4.741
		l2.806-2.244l3.775-0.617L537.413,358.093z"/>
	<path class="st5" d="M488.711,248.482v0.011l0.426,1.436l2.871,9.665l1.088,6.298l-2.501,3.439v0.017l-1.391-5.701l-0.202-0.805
		l-2.097-5.775h-1.009l-0.168,4.385l0.168,1.379l-0.101-0.045l-0.101,0.394v0.011v0.687l0.202,0.833l0.46,0.54l1.167,0.355
		l0.011,0.006l0.235,0.433l1.122,2.898l2.423,1.767h0.011l2.311-0.191l0.808-2.971h0.841l0.875,1.587l0.236,0.428l1.133,4.991
		l1.155,1.919l1.537,1.677l0.987,1.632l1.705,3.905l0.673-0.675l0.886-0.664l0.404-0.636l0.606,1.288l-0.606,0.686l0.303,0.495
		l0.269,0.326l0.045,0.084l0.157,0.276l0.09,0.619l0.011-0.011l0.684-0.563l1.413-0.675l0.718-0.551v0.011l0.325,0.776l0.393,0.945
		l-0.292,1.12l-0.482,1.114l0.022,0.861l0.034,0.833l0.965,1.856l1.705,1.299l1.11,0.849l1.009,1.659l-0.639,0.039l-0.325,0.219
		l-0.415,0.281l-0.258,0.163l-0.258,0.158l-0.404,1.507l-0.404,1.507l1.615,4.713l0.875,1.001l1.974,2.261h0.022l2.916-0.529h0.942
		l0.953,2.885l1.088,1.783l0.336,0.551l5.945,6.185l1.918,3.019l0.337,2.671l-3.051,0.916l-0.011,0.006l-1.413-0.956l-3.387-4.29
		l-1.772-1.524l-2.288-0.838h-0.022l-0.236,0.023l-1.626,0.141l-1.436,1.462l-0.976,3.064l1.649,0.748l1.593,0.225l1.368-0.506
		l1.032-1.411l1.626,0.607l1.492,0.742l0.516,0.607l0.348,0.422l-0.213,1.484l1.828,1.703l1.828,1.703l1.436,1.642l1.503,2.496
		l-0.011,0.006l-0.707,0.815l-0.179,0.793l0.235,0.95l0.662,1.304l0.852-1.04l-0.516-1.877v-0.011l1.626,0.573l3.197,2.355
		l0.763,1.102l2.535,6.436l-0.157,0.275l-0.785,3.496l0.112,0.382l0.022,0.056l0.651,1.337l0.157,0.539l-0.538,0.95l-0.987,0.759
		l-0.594,0.843l0.707,1.225l0.673,0.882l0.235,0.691l0.034,0.09l0.404,0.787l1.01,0.893l-1.481,1.062l0.135,0.528l-2.636,0.411
		l-3.775,0.617l-2.806,2.244l-4.815,4.741l-1.011-2.226l-0.413-7.821l-1.083-3.386l-0.057-3.461l-3.234,1.795l-9.174,0.992
		l-9.046-1.552l-2.35-2.259l-4.33-2.591l-1.268-2.07l-0.271-2.309l1.353-4.001l0.199-4.148l-4.373-0.839l-4.202-1.192l-3.048-2.888
		l-4.715-6.79l-3.675-1.193l-4.43,0.221l-3.732-0.736l-1.952-10.691l1.211-10.639l1.04-4.015l3.091-2.075l3.946-0.547l5,0.657
		l1.268-0.096l-1.14-5.151l-2.308-4.995l-1.011-5.091l1.111-21.811l-0.727-7.214l2.293-0.812L488.711,248.482z M533.106,330.52
		l-0.236-1.45l-0.538-1.124l-0.662-1.383l-0.449-1.355l0.067-1.434l0.426-1.271l0.18-1.344l-0.673-1.602v-0.017l1.772,1.72
		l1.694,3.986l1.245,1.844l0.303,0.798l1.279,3.429l3.354,5.306l1.548,2.445l2.333,12.044v0.011l-0.09,2.754l-2.041,1.68
		l-1.94-1.523l-0.594-0.624l-0.28-0.287l-0.09-0.686l-0.101-0.68l0.022-0.287l0.572-8.694l-0.404-3.001l-1.514-1.282l-0.572-1.231
		L533.106,330.52z"/>
	<path class="st2" d="M421.359,464.787l-2.265,3.412l-1.424,3.551l-2.521,3.013l-1.311,3.059l-1.353,5.972l-2.607,3.685l-2.08,3.913
		l0.413,2.268l0.869,2.172l0.114,8.516l1.538,2.948l1.952,2.588l2.635,1.413l2.507,1.755l1.325,2.516l1.083,3.207l2.536,2.812
		l1.282,3.505l-0.698,2.42l-2.892-0.95l-5.057-1.018l-1.61-1.854l-2.094-1.637l-2.635,0.253l-2.621,0.623l-2.65-0.406l-10.114-3.659
		l-7.877-1.498v-1.313l0.727-0.737l-1.766-1.306l0.114-1.292l-1.539-1.894l-3.305,0.552l-2.479-0.438l0.912-2.449l-1.994-3.652
		l-6.054,0.794l-2.35,0.018l-0.954,2.232l-2.706,0.623l-2.692,0.384l-1.182-1.702l-2.222,0.071l-4.288-2.1l-2.051-0.05l-2.322-0.94
		l-1.88-1.581l-1.681-1.73l-4.986-8.616l-5.826-8.15l-0.727-2.34l2.08-0.794l-1.994-3.793l-3.077-2.796l-1.923-0.741l-1.524-1.421
		l-0.812-4.017l-4.202-4.057l-1.339-2.757l-0.883-2.593l0.199-2.201l-2.407-6.327l-0.456-2.839l3.034-2.704l-3.39-3.581l0.712-1.636
		l0.584-1.921l1.496-2.359l1.766-2.149l2.137-0.969l5.712,5.791l1.709,2.159l2.108,1.639l0.997-0.542l1.396-0.306l0.997,1.194
		l0.655,1.347l3.447,0.766l4.188-2.355l1.724-0.189l2.08,0.075l2.963,1.693l3.803,1.251l2.735,0.392l2.749-0.096l-0.1,2.259
		l0.94,1.019l-1.054,0.983l-0.499,1.414l2.835,2.152l3.362,0.271l7.151,1.603l7.564,1.022l2.906-0.481l3.419-0.271l4.573,0.15
		l4.302-0.581l7.806-4.058l0.37,5.069l1.026-0.502l1.011-0.395l1.88,2.059l2.379,0.73l-0.328,1.29l-0.442,1.069l-0.527,0.538
		l-3.732,1.692l-0.655,1.81l1.453,2.28l2.108,1.695l3.148,0.595l3.319-1.346l2.806-2.059L421.359,464.787z"/>
	<path class="st5" d="M420.234,518.776l-1.083-3.207l-1.325-2.516l-2.507-1.755l-2.635-1.413l-1.952-2.588l-1.538-2.948
		l-0.114-8.516l-0.869-2.172l-0.413-2.268l2.08-3.913l2.607-3.685l1.353-5.972l1.311-3.059l2.521-3.013l1.424-3.551l2.265-3.412
		l1.638,0.086l1.068,1.656l0.655,2.372l1.068,0.563l1.097,0.232l1.282,2.835l0.94,3.02l0.969,0.463l0.926,0.545l0.613,4.402
		l1.595,1.959l1.197,1.909l0.541-3.657l1.952-3.016l1.467,0.951l1.51,0.723l0.427-3.273l2.863-1.022l-2.051-3.205l-1.296-3.832
		l-0.014-2.102l0.285-2.03l2.037-3.149l-0.171-2.436l-2.407-0.648l-0.541-1.792l1.168-2.501l-0.285-2.961l0.342-2.9l4.672-0.406
		l1.197-2.309l4.003-1.211l-3.376-4.664l2.963-1.625l3.518-0.98l1.738-1.401l1.396-1.753l0.612-1.087l0.841-0.845l1.367,0.592
		l1.795-0.381l0.712-1.999l0.356-2.145l0.926-1.426l0.741-1.5l0.513-3.824l0.641-2.481v-2.566l-0.37-1.928l-0.727-1.836
		l-1.011-1.241l-0.755-0.652l-1.482-1.893l-5.071,1.333l-1.624-1.69l-1.382-2.834l-2.108-2.068l-1.724-2.2l0.413-2.799l1.624-2.435
		l2.265,0.275l1.923,2.068l2.293-0.952l1.239-2.132l3.789-4.746l1.068-2.607l-0.014-2.849l5.37-1.28l1.083,2.671l1.211,2.243
		l2.792-0.966l2.564-1.865l-0.727-5.15l-0.014-5.3l3.419,0.153l2.792-1.541l0.641-0.97l0.954-1.149l0.627-1.359l-0.157-1.623
		l-0.755-1.627l-0.029-1.805l1.41-0.107l1.909-0.492l0.94-1.477l0.513-1.292l1.524-0.678l1.667-0.578l3.447-1.837l2.707,0.731
		l-2.037,3.147l0.869,0.524l0.912,0.161l-0.271,1.855l1.638,7.27l-0.199,3.296l0.556,2.661l3.048,2.636l1.923,3.345l0.399,2.967
		l2.991,4.122l-2.236,1.755l-2.878,3.391l-1.61,4.282l1.781,3.223l0.556,2.139l1.068,1.893l1.111,0.485h1.026l0.855,0.506
		l0.712,0.628l4.915,1.262l4.074,2.442l-0.271,2.591l-0.641,2.723l0.954,2.652l0.014,2.666l1.652,2.359l0.684,2.726l-3.59,50.587
		l-2.464,2.856l-3.704,0.687l-2.92,2.208l-2.507,2.404l-3.276,1.471l-2.721,2.158l0.057,2.328l0.712,1.851l-0.598,0.972
		l-0.627,0.851l0.085,1.129v1.2l-1.795,2.926l-3.846-0.876l-3.675,1.339l-1.211-0.174l-0.342-0.395l-1.51,1.079l-8.191,3.165
		l-4.017,1.05l-2.108,0.876l-1.353,1.356l-3.775,2.054l-3.447-1.427l-2.108-3.556l-2.578-3.357l-1.738,0.189l-1.253,0.89
		l-1.482,0.064l-1.367-0.189l-1.054-2.513l-2.35-0.84l-3.419-0.438l-3.462,0.032l-1.31,1.484l-1.695-1.207l0.029,1.826l-1.14,1.598
		l-1.866,0.142l-1.738-0.014l-0.669,3.125l1.325,3.086l-2.991,2.253l-3.889,1.26l-3.476,1.869L420.234,518.776z"/>
	<path class="st3" d="M322.414,433.064l-0.071-1.344l-0.185-1.333l1.838-1.711l-0.427-2.509l-2.379-1.205l-2.991-0.2l0.413-1.133
		l-0.029-1.258l-2.051-6.548l0.712-4.017l1.752-4.018l1.994-1.373l1.04-2.342l-2.906-0.845l-3.362,0.795l-1.681-3.458l0.584-3.908
		l2.179-1.123l1.795-1.68l0.37-4.743l1.353-1.07l-0.228-1.833l2.806-1.623l2.849-2.529l3.02-2.158l3.234-1.502l6.738-1.495
		l1.467-0.061l0.997-1.334l0.456-1.63l-0.157-2.832l0.484-2.618l3.034-1.206l3.291,0.446l2.009,2.069l1.268,2.661l1.695,4.234
		l5.954,5.197l-0.228,2.664l1.168,0.813l3.504,1.929l1.667,2.022l-0.328,2.461l0.029,2.022l1.994,1.975l1.61,2.008l-0.783,1.815
		l-1.083,1.697l-1.496,0.353l-1.51,0.086l-2.165,2.335l-4.772,0.777l-1.581,1.447l2.094,4.977l0.997,1.718l-0.997,2.121
		l-0.071,2.734l0.185,0.445l0.456,0.125l-1.211,1.946l-1.909,1.672l-1.054,0.356l-0.755,1.023l0.769,1.051l0.883,0.898l-0.969,5.121
		l1.197,3.991l4.003,1.29l3.191,2.359l1.054,3.62l0.228,1.846l-1.581,1.383l-2.749,0.096l-2.735-0.392l-3.803-1.251l-2.963-1.693
		l-2.08-0.075l-1.724,0.189l-4.188,2.355l-3.447-0.766l-0.655-1.347l-0.997-1.194l-1.396,0.306l-0.997,0.542l-2.108-1.639
		l-1.709-2.159l-5.712-5.791L322.414,433.064z"/>
	<path class="st4" d="M468.567,383.496l-5.37,1.28l0.014,2.849l-1.068,2.607l-3.789,4.746l-1.239,2.132l-2.293,0.952l-1.923-2.068
		l-2.265-0.275l-1.624,2.435l-0.413,2.799l1.724,2.2l2.108,2.068l1.382,2.834l1.624,1.69l5.071-1.333l1.482,1.893l0.755,0.652
		l1.011,1.241l0.727,1.836l0.37,1.928v2.566l-0.641,2.481l-0.513,3.824l-0.741,1.5l-0.926,1.426l-0.356,2.145l-0.712,1.999
		l-1.795,0.381l-1.367-0.592l-0.841,0.845l-0.612,1.087l-1.396,1.753l-1.738,1.401l-3.518,0.98l-2.963,1.625l3.376,4.664
		l-4.003,1.211l-1.197,2.309l-4.672,0.406l-0.342,2.9l0.285,2.961l-1.168,2.501l0.541,1.792l2.407,0.648l0.171,2.436l-2.037,3.149
		l-0.285,2.03l0.014,2.102l1.296,3.832l2.051,3.205l-2.863,1.022l-0.427,3.273l-1.51-0.723l-1.467-0.951l-1.952,3.016l-0.541,3.657
		l-1.197-1.909l-1.595-1.959l-0.613-4.402l-0.926-0.545l-0.969-0.463l-0.94-3.02l-1.282-2.835l-1.097-0.232l-1.068-0.563
		l-0.655-2.372l-1.068-1.656l-1.638-0.086l-2.521,0.132l-2.806,2.059l-3.319,1.346l-3.148-0.595l-2.108-1.695l-1.453-2.28
		l0.655-1.81l3.732-1.692l0.527-0.538l0.442-1.069l0.328-1.29l-2.379-0.73l-1.88-2.059l-1.011,0.395l-1.026,0.502l-0.37-5.069
		l2.607-0.645l1.41-1.988l-1.268-0.638l-1.268-0.809l2.023-3.278l-0.541-0.93l-0.698-0.844l-0.783-2.117l-0.912-1.924l-4.402-2.202
		l-0.157-2.199l2.493-0.121l2.578,0.146l1.852-2.12l0.669-2.734l2.179-1.989l2.493-1.183l5.214-1.126l3.063-4.527l0.627-2.691
		l1.268-2.438l1.111-1.012l0.898-1.141l0.456-1.02l-0.199-0.959l-0.755-2.446l0.67-1.276l0.94-1.155l-0.499-0.706l-0.627-0.742
		l-0.285-1.162l0.299-1.259l-1.04-3.441l0.114-2.485l1.752-1.059l2.949-0.827l3.718-3.438l0.242-4.476l-3.02-9.99L428.98,354.6
		l-0.669-11.298l1.325-6.492l0.385,0.364l2.08,1.274l0.897,1.967l0.185,2.252l1.097,3.312l3.39,5.635l2.507-0.878l1.382-0.318
		l1.667-0.639l2.934-2.698l6.766-3.776l6.125,1.324l0.527,6.905l-1.453,6.712l-0.769,1.424l-0.385,1.242l0.413,1.702l0.556,1.72
		l0.897,6.075l1.524,3.232l2.065,2.03l1.197-0.289l1.695,0.321l0.57,1.227l0.954,1.602l1.239,2.49L468.567,383.496z"/>
	<path class="st1" d="M397.67,281.892l1.211,1.168l1.909,2.151l-0.043,2.429l0.755,0.815l1.154,0.425l0.883-0.564l0.057-0.879
		l1.667-0.789l1.595,0.457l2.18,0.443l2.023,1.207l-4.131,4.312l-1.353,6.547l-0.385,3.157l-1.325,5.585l-0.47,0.989l-0.256,1
		l-4.003,0.889l-0.926,3.796l1.866,8.398l-0.256,2.695l1.367,1.931l3.633,0.792l3.462-1.439l2.749-2.492l1.182,1.642l2.108,1.314
		l0.598-2.42l0.313-2.474l7.393,0.503l7.137-1.292l-0.1,2.31l0.997,3.113l0.299,2.66l-1.325,6.539l-1.325,6.492l0.669,11.298
		l-4.373-0.485l-2.792,0.421l-1.524,2.551l-0.883,0.767l-1.011,0.557l-1.667-2.066l-2.265,1.113l-5.684-0.053l-4.359,3.586
		l-3.96,0.589l-5.128-4.214l-2.037-0.789l-1.923,1.16l-0.826,2.151l0.456,5.066l-2.934,3.246l-5.071-0.3l-8.761-5.473l-2.835-3.882
		l0.071-1.427l0.769-1.042l0.285-1.67l-0.385-1.727l-0.698-1.456l-0.84-1.381l-1.382-2.769l0.342-2.916l1.952-1.774l0.499-1.185
		l-0.029-1.256l0.399-1.631l0.057-1.62l-2.521-2.456l-0.769-4.276l-0.399-4.616l-0.698-0.992l-0.499-0.346l-0.043-2.381l-0.94-2.371
		l-1.367-2.285l-0.983-2.149l-1.04-0.289l-1.225-0.686l-0.356-2.421l0.641-2.257l2.935-2.16l4.63-1.703l2.436-2.936l2.222,0.086
		l1.652,1.089l2.051-1.418l1.026-1.668l0.954-0.664l0.897-0.525l-0.086-0.979l-0.313-0.643l1.766-1.814l1.325-2.004l-0.029-2.572
		l0.769-2.208h1.382l1.04,0.257l0.798-0.557l2.678-2.801l1.795-1.572l2.621-1.315L397.67,281.892z"/>
	<path class="st7" d="M397.67,281.892l0.185-3.651l2.692-3.748l-2.749-2.19l0.228-4.806l0.94-5.404l1.994-5.222l1.125-5.798
		l2.023-5.319l5.456-1.012l6.111,0.007l1.766-1.048l0.584-2.413l1.026-2.446l1.781-1.845l2.066-0.601l1.61,2.374l2.236,0.858
		l2.108,1.652l0.57,2.882l1.724,1.723l5.812-0.568l10.441,2.542l2.464,0.003l2.293,1.294l2.222,1.705l2.436,1.244l1.738-0.132
		l0.983,1.383l0.214,1.759l-0.057,1.784l0.484,2.627l-0.741,1.723l-1.595,1.001l0.541,0.386l0.669,0.225l3.462-0.783l1.952-4.543
		l0.698-1.323l0.869-3.617l0.954-0.826l1.04-0.776l0.912-1.652l1.254-1.344l1.724,0.004l2.137-0.014l0.727,7.214l-1.111,21.811
		l1.011,5.091l2.308,4.995l1.14,5.151l-1.268,0.096l-5-0.657l-3.946,0.547l-3.091,2.075l-1.04,4.015l-1.211,10.639l1.952,10.691
		l-0.627,3.11l0.427,3.263l-0.755,1.482l-0.883,0.921l-0.641,1.617l-0.328,1.424l-2.692-0.321l-3.248-1.849l-6.667-2.06
		l-4.074-4.073l-5.014-1.921l-2.521,0.443l-5.142,0.493l-2.592,0.007l-7.137,1.292l-7.393-0.503l-0.313,2.474l-0.598,2.42
		l-2.108-1.314l-1.182-1.642l-2.749,2.492l-3.462,1.439l-3.633-0.792l-1.367-1.931l0.256-2.695l-1.866-8.398l0.926-3.796
		l4.003-0.889l0.256-1l0.47-0.989l1.325-5.585l0.385-3.157l1.353-6.547l4.131-4.312l-2.023-1.207l-2.18-0.443l-1.595-0.457
		l-1.667,0.789l-0.057,0.879l-0.883,0.564l-1.154-0.425l-0.755-0.815l0.043-2.429l-1.909-2.151L397.67,281.892z"/>
	<path class="st0" d="M351.63,372.399l-1.268-2.661l-2.009-2.069l-3.291-0.446l-3.034,1.206l-0.484,2.618l0.157,2.832l-0.456,1.63
		l-0.997,1.334l-1.467,0.061l-6.738,1.495l-3.234,1.502l-3.02,2.158l-2.849,2.529l-2.806,1.623l-2.407-1.755l-3.433-3.891
		l-0.798-1.138l-0.385-1.177l-1.254-1.37l-3.832,0.681l-3.376,2.375l-3.989,1.181l-3.803-2.672l-3.305,0.139l-5.256,4.098
		l-2.934,1.145l-0.328-8.211l-5.1-27.215l-0.242-4.761l0.271-4.754l1.482-3.79l2.065-3.512l0.527-1.564l0.969-1.367l2.009-0.514
		l1.624-0.889l-0.755-1.264l-1.695-0.421l0.698-1.803l0.94-1.596l1.781-0.56l1.98-0.154l1.496-0.625l0.969-1.257l-0.527-1.46
		l-0.741-1.532l0.442-3.656l1.31-3.353l0.257-1.639l0.499-1.493l1.781-0.943l1.681-1.136l0.399-1.489l0.655-1.414l2.92-1.511
		l0.555-1.257l0.199-1.396l0.855-1.929l2.037-0.936l-0.157,0.225l-0.1,0.25l0.869-0.268l1.054-1.086l0.029-1.693l0.798-1.329
		l2.863,1.608l1.738-1.336l-1.652-3.065l0.798-1.629l1.04-1.561l0.142-3.14l-0.114-3.723l0.541-1.815l0.342-1.647l-1.652-1.033
		l-1.88-0.65l-1.296-2.487l-0.513-2.702l-1.453-5.468l0.071-2.781l-0.256-2.638l2.977,1.648l12.707,5.808l2.721,0.679l2.635,1.054
		l2.065,1.479l2.55,0.375l4.573,1.755l4.145,3.352l2.251,2.258l2.493,1.536l2.593-0.086l2.08,1.701l0.043,1.729l-0.242,1.743
		l0.399,2.951l-0.185,2.515l0.256,2.404l1.923,0.804l2.222,0.161l1.14,1.904l0.356,2.315l1.296,3.204l0.684,3.268l-0.527,4.8
		l3.504,3.35l-0.641,2.257l0.356,2.421l1.225,0.686l1.04,0.289l0.983,2.149l1.367,2.285l0.94,2.371l0.043,2.381l0.499,0.346
		l0.698,0.992l0.399,4.616l0.769,4.276l2.521,2.456l-0.057,1.62l-0.399,1.631l0.029,1.256l-0.499,1.185l-1.952,1.774l-0.342,2.916
		l1.382,2.769l0.84,1.381l0.698,1.456l0.385,1.727l-0.285,1.67l-0.769,1.042l-0.071,1.427l-1.652,0.76l-1.624,0.418l1.111,1.752
		l0.826,1.877l-1.481,0.706l-1.98-0.342l-2.023,1.12l0.214,1.541l-0.199,1.434l-2.365-0.178l-2.137-1.52l-1.98,0.004l-0.442,2.761
		l-0.584,0.753l-0.47,0.81l0.114,0.903l0.228,0.642l-2.479,0.724L351.63,372.399z"/>
	<path class="st6" d="M420.832,236.997l-1.781,1.845l-1.026,2.446l-0.584,2.413l-1.766,1.048l-6.111-0.007l-5.456,1.012
		l-2.023,5.319l-1.125,5.798l-1.994,5.222l-0.94,5.404l-0.228,4.806l2.749,2.19l-2.692,3.748l-0.185,3.651l-2.878,1.168
		l-2.621,1.315l-1.795,1.572l-2.678,2.801l-0.798,0.557l-1.04-0.257h-1.382l-0.769,2.208l0.029,2.572l-1.325,2.004l-1.766,1.814
		l0.313,0.643l0.086,0.979l-0.897,0.525l-0.954,0.664l-1.026,1.668l-2.051,1.418l-1.652-1.089l-2.222-0.086l-2.436,2.936
		l-4.63,1.703l-2.935,2.16l-3.504-3.35l0.527-4.8l-0.684-3.268l-1.296-3.204l-0.356-2.315l-1.14-1.904l-2.222-0.161l-1.923-0.804
		l-0.256-2.404l0.185-2.515l-0.399-2.951l0.242-1.743l-0.043-1.729l-2.08-1.701l-2.593,0.086l-2.493-1.536l-2.251-2.258
		l-4.145-3.352l-4.573-1.755l-2.55-0.375l-2.065-1.479l-2.635-1.054l-2.721-0.679l-12.707-5.808l-2.977-1.648l-1.538-1.98
		l-2.037-1.623l-2.792,0.1l-2.464-1.841l-2.322,1.051l-2.863,0.014l-0.855-2.456l-3.433-13.951l-2.023-3.88l1.51-3.43l2.322-1.066
		l0.627-1.241l0.185-0.973l4.302-3.505l2.507-5.297l-0.783-5.716l1.14,0.562l1.325,0.154l0.285-12.834l-1.097-8.116l6.14,2.491
		l6.766,0.021l13.404-3.504l0.057,4.499l1.41,3.9l2.094,0.716l2.037,0.927l0.883,1.707l0.513,1.878l1.467,2.934l2.906,1.546
		l1.439,0.401l1.339,0.079l2.108-3.789l2.45-1.063l2.564-5.968l5.427-7.025l4.202-1.922l2.55,1.349l2.336,1.661l4.387-0.032
		l3.675-2.795l3.49-3.128l3.006-3.501l1.667-2.549l1.937-2.359l3.276-2.585l-1.154-3.587l-2.536-3.265l-3.59-1.239l-0.256-3.04
		l10.256-0.354l4.003-2.79l3.618-1.028l3.789-0.716l3.889-1.587l4.046,0.09l3.518,1.984l5.997,4.175l2.122,2.32l1.111,1.49
		l1.31,0.992l-1.61,3.595l-2.336,3.433l0.085,5.953l2.55,5.569l1.054,2.888l-2.137,4.975l0.114,2.827l1.168,1.324l1.467,1.424
		l0.57,3.303l3.647,5.406l1.937,4.597l1.239,1.563l1.595,1.227l0.926,2.128l-1.14,2.042l-1.966,1.266l-1.695,1.667l-0.57,1.67
		l-0.313,1.742L420.832,236.997z"/>
	<path class="st6" d="M361.816,444.912l1.581-1.383l-0.228-1.846l-1.054-3.62l-3.191-2.359l-4.003-1.29l-1.197-3.991l0.969-5.121
		l-0.883-0.898l-0.769-1.051l0.755-1.023l1.054-0.356l1.909-1.672l1.211-1.946l-0.456-0.125l-0.185-0.445l3.946,0.346l6.182,9.16
		l4.017,2.366l2.977-3.154l1.652-4.605l-1.638-2.228l-2.051-1.935l-2.422-4.449l-1.083-0.467l-1.125,0.339l3.12-2.477l4.971,0.602
		l2.806-0.61l4.003-2.756l2.692-0.053l2.365,0.617l8.875-10.45l2.792-4.707l-1.254-5.167l-0.442-3.994l2.393,2.133l1.966,2.639
		l1.439,0.506l1.197,0.139l3.162,4.975l5.057,0.396l5.912-0.874l5.712,1.159l-0.114,2.485l1.04,3.441l-0.299,1.259l0.285,1.162
		l0.627,0.742l0.499,0.706l-0.94,1.155l-0.67,1.276l0.755,2.446l0.199,0.959l-0.456,1.02l-0.898,1.141l-1.111,1.012l-1.268,2.438
		l-0.627,2.691l-3.063,4.527l-5.214,1.126l-2.493,1.183l-2.179,1.989l-0.669,2.734l-1.852,2.12l-2.578-0.146l-2.493,0.121
		l0.157,2.199l4.402,2.202l0.912,1.924l0.783,2.117l0.698,0.844l0.541,0.93l-2.023,3.278l1.268,0.809l1.268,0.638l-1.41,1.988
		l-2.607,0.645l-7.806,4.058l-4.302,0.581l-4.573-0.15l-3.419,0.271l-2.906,0.481l-7.564-1.022l-7.151-1.603l-3.362-0.271
		l-2.835-2.152l0.499-1.414l1.054-0.983l-0.94-1.019L361.816,444.912z"/>
	<path class="st7" d="M397.243,158.301l-3.789,0.716l-3.618,1.028l-4.003,2.79l-10.256,0.354l0.256,3.04l3.59,1.239l2.536,3.265
		l1.154,3.587l-3.276,2.585l-1.937,2.359l-1.667,2.549l-3.006,3.501l-3.49,3.128l-3.675,2.795l-4.387,0.032l-2.336-1.661
		l-2.55-1.349l-4.202,1.922l-5.427,7.025l-2.564,5.968l-2.45,1.063l-2.108,3.789l-1.339-0.079l-1.439-0.401l-2.906-1.546
		l-1.467-2.934l-0.513-1.878l-0.883-1.707l-2.037-0.927l-2.094-0.716l-1.41-3.9l-0.057-4.499l-5.214-6.707l-3.262-2.477l0.029-1.808
		l0.513-2.051l3.561-0.354l2.051-4.647l3.86-2.127l4.986,0.555l7.763-0.97l7.407-2.721l0.698-4.838l-2.094-5.311l-2.137-3.413
		l-3.732-1.748l6.396-4.004l3.846-3.109l2.464-3.715l-0.171-2.343l-0.499-2.368l0.014-1.24l-0.142-1.129l-2.023-0.326l-1.068-1.447
		l0.356-2.021l2.479-0.236l2.664,0.161l4.743-0.136l3.447,2.186l2.122,3.153l3.39-1.501l2.365-2.103l1.367-0.663l1.31-0.752
		l0.256-0.706l0.313-0.681l4.487-0.122l4.273,1.634l0.499,4.45l3.704,0.405l1.595,2.798l-1.325,1.952l-0.228,1.884l2.151-0.516
		l2.023-1.376l4.345,0.659l4.388,2.68l1.667,2.225l-2.536,9.388l-1.14,1.973L397.243,158.301z"/>
	<path class="st2" d="M357.328,417.785l0.071-2.734l0.997-2.121l-0.997-1.718l-2.094-4.977l1.581-1.447l4.772-0.777l2.165-2.335
		l1.51-0.086l1.496-0.353l1.083-1.697l0.783-1.815l-1.61-2.008l-1.994-1.975l-0.029-2.022l0.328-2.461l-1.667-2.022l-3.504-1.929
		l-1.168-0.813l0.228-2.664l-5.954-5.197l-1.695-4.234l2.849,0.31l2.479-0.724l-0.228-0.642l-0.114-0.903l0.47-0.81l0.584-0.753
		l0.442-2.761l1.98-0.004l2.137,1.52l2.365,0.178l0.199-1.434l-0.214-1.541l2.023-1.12l1.98,0.342l1.481-0.706l-0.826-1.877
		l-1.111-1.752l1.624-0.418l1.652-0.76l2.835,3.882l8.761,5.473l5.071,0.3l2.934-3.246l-0.456-5.066l0.826-2.151l1.923-1.16
		l2.037,0.789l5.128,4.214l3.96-0.589l4.359-3.586l5.684,0.053l2.265-1.113l1.667,2.066l1.011-0.557l0.883-0.767l1.524-2.551
		l2.792-0.421l4.373,0.485l1.211,20.845l3.02,9.99l-0.242,4.476l-3.718,3.438l-2.949,0.827l-1.752,1.059l-5.712-1.159l-5.912,0.874
		l-5.057-0.396l-3.162-4.975l-1.197-0.139l-1.439-0.506l-1.966-2.639l-2.393-2.133l0.442,3.994l1.254,5.167l-2.792,4.707
		l-8.875,10.45l-2.365-0.617l-2.692,0.053l-4.003,2.756l-2.806,0.61l-4.971-0.602l-3.12,2.477l1.125-0.339l1.083,0.467l2.422,4.449
		l2.051,1.935l1.638,2.228l-1.652,4.605l-2.977,3.154l-4.017-2.366l-6.182-9.16L357.328,417.785z"/>
</g>

</svg>
